<svg id="Layer_1" data-name="Layer 1" xmlns="http://www.w3.org/2000/svg" viewBox="0 0 94.42 69.6"><defs><style>.cls-1,.cls-3{fill:blue;}.cls-2{fill:none;}.cls-2,.cls-3{stroke:#000;stroke-miterlimit:10;}</style></defs><title>icon</title><path class="cls-1" d="M20.69,82.57a3.23,3.23,0,0,0,1.79-1.16l-2.36-1.82-.34.54,2.8.76c.11-2,.81-5-1.41-6-2.52-1.2-3.73,1.83-4.15,3.73L20,79a31.37,31.37,0,0,1,.44-4.41l-2.21.9c1.7,1.22,2.83,1.47,2.29,3.43-.34,1.26-.31,3-.85,4.14-.82,1.73,1.74,3.26,2.59,1.52a32.1,32.1,0,0,1,3.93-6.17L23.8,76.57A23.92,23.92,0,0,0,22.41,79c-.7,1.43,1.2,3.2,2.36,1.82s2.39-2.73,3.68-4L26.09,75c-.94,1.54-2.13,2.65-2.76,4.38s1.83,2.47,2.74,1.15l2.31-3.35c1-1.39-1.24-3.11-2.36-1.81l-5.15,6,2.56,1.06c0-.77,1.66-2,2.24-2.52l-2.36-1.81a77.24,77.24,0,0,1-5.21,8.28c-1.23,1.58-1.86,2.41-1.56,4.48.23,1.52,2.53,1.32,2.9,0a38.43,38.43,0,0,0,1.32-6.07c.19-1.81-.78-5-.23-6.57l-1.05,1a11,11,0,0,1,4.3-.76c1.93.08,1.92-2.92,0-3s-5.32,0-6.17,2c-.57,1.33.23,3.62.27,5A25.75,25.75,0,0,1,16.54,90h2.9c-.18-1.21,2.32-3.58,2.95-4.59,1.21-1.92,2.35-3.91,3.51-5.86.91-1.52-1.1-2.89-2.35-1.82s-3.05,2.72-3.12,4.64A1.51,1.51,0,0,0,23,83.45l5.16-6-2.36-1.82L23.48,79l2.74,1.15c.5-1.37,1.7-2.42,2.46-3.66a1.5,1.5,0,0,0-2.36-1.81q-1.92,1.92-3.67,4L25,80.49a25.08,25.08,0,0,1,1.39-2.41c.91-1.4-1.27-3.15-2.35-1.81A35.09,35.09,0,0,0,19.64,83l2.59,1.52A9.07,9.07,0,0,0,23,81.78c.19-1.28.91-2.71.95-4,.08-2.37-2.55-3.71-4.23-4.91a1.52,1.52,0,0,0-2.21.89A36.52,36.52,0,0,0,17,79a1.5,1.5,0,0,0,2.94.4c.1-.44.17-1.86-.2-.77a10.24,10.24,0,0,0-.13,2.28c-.09,1.55,2.05,2,2.79.76l.34-.54c.88-1.42-1.24-3.14-2.35-1.82l-.46.39c-1.81.63-1,3.53.79,2.89Z" transform="translate(-15.58 -28)"/><path class="cls-1" d="M18.68,77.69A2.79,2.79,0,0,0,18,81.33a1.14,1.14,0,0,0,2.06-.27c.3-1.33,1.35-7-1.74-6.07-2.94.92-.49,8.64-.84,10.79l2.21.3a11.12,11.12,0,0,1,.17-2.23H17.61a23.82,23.82,0,0,1-.69,6.85l2.21.3c.23-2.17,2.52-4.3,3.49-6.25A34.47,34.47,0,0,1,26,78.88L24,77.75c-.83,1.67-2.21,2.91-2.93,4.62-.43,1,1.18,1.9,1.88,1.09a11.19,11.19,0,0,0,1.19-1.55c.8-1.21-1.14-2.34-1.94-1.14l-.84,1.1L23.27,83c.6-1.43,2-2.66,2.7-4.09A1.12,1.12,0,0,0,24,77.75c-1.83,2.4-2.73,4.91-4.27,7.47-1.14,1.91-2.64,3.5-2.88,5.78-.15,1.3,1.85,1.46,2.2.3a24.55,24.55,0,0,0,.78-7.45c0-1.49-2.07-1.39-2.25,0a11.12,11.12,0,0,0-.17,2.23c0,1.24,2,1.57,2.21.3.36-2.18,0-3.31-.25-5.54a24.55,24.55,0,0,0,0-3.31c-1.37-1.82-1.51,2.79-1.54,2.93L20,80.2l.32-.92c1.11-.94-.49-2.52-1.59-1.59Z" transform="translate(-15.58 -28)"/><path class="cls-1" d="M21.79,79.85a4.69,4.69,0,0,1-.68,1.47,1.15,1.15,0,0,0,.4,1.54c1.13.63,2.15-.4,3.06-1a9.33,9.33,0,0,0,1.62-1.25c.54-.62.76-1.33,1.43-1.87l-1.77-1.37a3.19,3.19,0,0,1-.44.81c-.79,1.23,1.13,2.32,1.94,1.14l.57-.73a1.14,1.14,0,0,0-.79-1.92c-1.76,0-2.79,3.2-3.55,4.37s1,2.38,1.77,1.36,1.71-1.51,2.07-2.73a1.13,1.13,0,0,0-1.88-1.09,30.26,30.26,0,0,0-3.3,4.72c-1,1.79-2.21,3.41-3.23,5.19A1.13,1.13,0,0,0,21,89.62C21.87,88,23,86.64,23.9,85a28.22,28.22,0,0,1,3.23-4.85l-1.88-1.1c-.2.7-.81.88-1.49,1.74l1.77,1.37c.13-.21,2-3.25,1.6-3.26L26.33,77a11.67,11.67,0,0,0-.92,1.18l1.94,1.14a2.9,2.9,0,0,0,.44-.81A1.13,1.13,0,0,0,26,77.14a9,9,0,0,0-1.39,1.69c-.24.31-2.44,1.83-2,2.08l.4,1.54a9.25,9.25,0,0,0,.91-2c.45-1.38-1.72-2-2.17-.6Z" transform="translate(-15.58 -28)"/><path class="cls-1" d="M18.77,76.39a26.17,26.17,0,0,1-.13-2.66,3.91,3.91,0,0,1,.54-2.23c.64-1.29-1.3-2.43-1.94-1.13a5.46,5.46,0,0,0-.88,2.94A34.81,34.81,0,0,0,16.61,77c.25,1.43,2.42.82,2.16-.6Z" transform="translate(-15.58 -28)"/><path class="cls-1" d="M19.43,76.14c-.22-.74-.76-1.74-.36-2.47L17,72.8a12.81,12.81,0,0,0-.23,3.27H19l0-2.13a6.64,6.64,0,0,1,0-1.89,1.13,1.13,0,0,0-2.17-.6,7.6,7.6,0,0,0-.13,2.13l0,2.49a1.13,1.13,0,0,0,2.25,0,10.84,10.84,0,0,1,.15-2.67,1.13,1.13,0,0,0-2.05-.87c-.78,1.45-.3,2.74.13,4.21a1.13,1.13,0,0,0,2.17-.6Z" transform="translate(-15.58 -28)"/><path class="cls-1" d="M16.86,75.34l-.21.52,2.21.3a4.23,4.23,0,0,1,.21-.92c.43-1.38-1.74-2-2.17-.59a7,7,0,0,0-.29,1.51,1.11,1.11,0,0,0,1,1.1,1.14,1.14,0,0,0,1.23-.8l.21-.52a1.14,1.14,0,0,0-.78-1.39,1.16,1.16,0,0,0-1.39.79Z" transform="translate(-15.58 -28)"/><path class="cls-1" d="M16.74,77A22.91,22.91,0,0,1,17,81.15l2.21-.3.15-1.68-2.17-.6-.1.51h2.17L19,78.33a1.13,1.13,0,0,0-2.17.6,22.67,22.67,0,0,1,.05,4.12c0,.75.52,2.3.21,3l2.06.27a1.86,1.86,0,0,1-.25-1.2l-2.1-.56a12.19,12.19,0,0,1-.24,3.66c-.32,1.41,1.85,2,2.16.59A13.49,13.49,0,0,0,19,84.54c-.07-1-1.59-1.69-2.09-.57a3.25,3.25,0,0,0,0,2.93c.31.78,1.61,1.25,2.05.27.62-1.39.22-2.24.11-3.72-.13-1.73.2-3.39-.14-5.12l-2.17.6.26.75c.33,1,1.92,1.15,2.17,0l.1-.51a1.13,1.13,0,0,0-2.17-.6A6.07,6.07,0,0,0,17,81.44c.19,1.29,2.18.93,2.21-.29a25.88,25.88,0,0,0-.33-4.74c-.22-1.42-2.39-.82-2.17.6Z" transform="translate(-15.58 -28)"/><path class="cls-1" d="M18.28,88.82a8.82,8.82,0,0,1-1.22,2.31c-.42.67-.39,1.55-.84,2.17-.85,1.18,1.11,2.3,1.94,1.13.53-.73.49-1.65,1-2.39a8.8,8.8,0,0,0,1.3-2.62,1.13,1.13,0,0,0-2.17-.6Z" transform="translate(-15.58 -28)"/><path class="cls-1" d="M18.58,93c-.07-3.22.67-6.35.83-9.57.07-1.44-2.18-1.44-2.25,0-.16,3.23-.9,6.32-.83,9.57a1.13,1.13,0,0,0,2.25,0Z" transform="translate(-15.58 -28)"/><rect class="cls-1" x="0.92" y="0.5" width="93" height="50" rx="5.98"/><path d="M22.48,28v1h81A5.49,5.49,0,0,1,109,34.48v38A5.46,5.46,0,0,1,103.52,78h-81A5.49,5.49,0,0,1,17,72.52v-38A5.49,5.49,0,0,1,22.48,29V28m0,0A6.48,6.48,0,0,0,16,34.48v38A6.48,6.48,0,0,0,22.48,79h81A6.48,6.48,0,0,0,110,72.52v-38A6.48,6.48,0,0,0,103.52,28Z" transform="translate(-15.58 -28)"/><path d="M16.31,97.6a.75.75,0,0,0,0-1.5.75.75,0,0,0,0,1.5Z" transform="translate(-15.58 -28)"/><path class="cls-1" d="M19.49,79.7a4.19,4.19,0,0,0-1,2.45,5.75,5.75,0,0,0,.08,1.24c0,.25.07.49.12.74l.05.29c0,.22,0,.19,0-.06l.38-.66-.11.14,2.5.67-.07-.23v.8a4.11,4.11,0,0,1,1-1.77,7.83,7.83,0,0,0,1.15-2,1.5,1.5,0,1,0-2.89-.8c-.6,1.64-2.73,2.82-2.1,4.82a1.51,1.51,0,0,0,2.51.66,2.58,2.58,0,0,0,.5-2.34c-.08-.47-.38-1.37,0-1.8a1.55,1.55,0,0,0,0-2.12,1.51,1.51,0,0,0-2.12,0Z" transform="translate(-15.58 -28)"/><line class="cls-2" x1="0.92" y1="44.5" x2="0.92" y2="68.5"/><line x1="0.92" y1="44.5" x2="0.92" y2="68.5"/><line class="cls-3" x1="12.92" y1="50.5" x2="0.92" y2="68.5"/></svg>